<mxfile host="65bd71144e">
    <diagram id="sCsIMTZclql8Zj7f7vA1" name="Page-1">
        <mxGraphModel dx="1530" dy="935" grid="0" gridSize="10" guides="1" tooltips="1" connect="1" arrows="1" fold="1" page="1" pageScale="1" pageWidth="1169" pageHeight="827" math="0" shadow="0">
            <root>
                <mxCell id="0"/>
                <mxCell id="1" parent="0"/>
                <mxCell id="2" value="Instance&lt;br&gt;MySQL/Redis&lt;br&gt;PG/Mongo/Other" style="rounded=0;whiteSpace=wrap;html=1;fontSize=15;" vertex="1" parent="1">
                    <mxGeometry x="176" y="251" width="155" height="200" as="geometry"/>
                </mxCell>
                <mxCell id="3" value="Task1" style="rounded=0;whiteSpace=wrap;html=1;fontSize=15;" vertex="1" parent="1">
                    <mxGeometry x="331" y="251" width="160" height="50" as="geometry"/>
                </mxCell>
                <mxCell id="4" value="Task2" style="rounded=0;whiteSpace=wrap;html=1;fontSize=15;" vertex="1" parent="1">
                    <mxGeometry x="331" y="301" width="160" height="50" as="geometry"/>
                </mxCell>
                <mxCell id="5" value="..." style="rounded=0;whiteSpace=wrap;html=1;fontStyle=1;fontSize=15;" vertex="1" parent="1">
                    <mxGeometry x="331" y="351" width="160" height="50" as="geometry"/>
                </mxCell>
                <mxCell id="6" value="Task n" style="rounded=0;whiteSpace=wrap;html=1;fontSize=15;" vertex="1" parent="1">
                    <mxGeometry x="331" y="401" width="160" height="50" as="geometry"/>
                </mxCell>
                <mxCell id="16" value="" style="edgeStyle=none;html=1;entryX=0;entryY=0.5;entryDx=0;entryDy=0;fontSize=15;" edge="1" parent="1" source="7" target="11">
                    <mxGeometry relative="1" as="geometry"/>
                </mxCell>
                <mxCell id="7" value="Sinker1" style="rounded=0;whiteSpace=wrap;html=1;fontSize=15;" vertex="1" parent="1">
                    <mxGeometry x="491" y="251" width="160" height="50" as="geometry"/>
                </mxCell>
                <mxCell id="17" value="" style="edgeStyle=none;html=1;entryX=0;entryY=0.5;entryDx=0;entryDy=0;fontSize=15;" edge="1" parent="1" source="8" target="12">
                    <mxGeometry relative="1" as="geometry"/>
                </mxCell>
                <mxCell id="8" value="Sinker2" style="rounded=0;whiteSpace=wrap;html=1;fontSize=15;" vertex="1" parent="1">
                    <mxGeometry x="491" y="301" width="160" height="50" as="geometry"/>
                </mxCell>
                <mxCell id="18" value="" style="edgeStyle=none;html=1;entryX=0;entryY=0.5;entryDx=0;entryDy=0;fontSize=15;" edge="1" parent="1" source="9" target="13">
                    <mxGeometry relative="1" as="geometry"/>
                </mxCell>
                <mxCell id="9" value="&lt;b style=&quot;font-size: 15px;&quot;&gt;...&lt;/b&gt;" style="rounded=0;whiteSpace=wrap;html=1;fontSize=15;" vertex="1" parent="1">
                    <mxGeometry x="491" y="351" width="160" height="50" as="geometry"/>
                </mxCell>
                <mxCell id="19" value="" style="edgeStyle=none;html=1;fontSize=15;" edge="1" parent="1" source="10" target="14">
                    <mxGeometry relative="1" as="geometry"/>
                </mxCell>
                <mxCell id="10" value="Sinker n" style="rounded=0;whiteSpace=wrap;html=1;fontSize=15;" vertex="1" parent="1">
                    <mxGeometry x="491" y="401" width="160" height="50" as="geometry"/>
                </mxCell>
                <mxCell id="11" value="Dest 1" style="rounded=0;whiteSpace=wrap;html=1;fontSize=15;" vertex="1" parent="1">
                    <mxGeometry x="731" y="251" width="160" height="50" as="geometry"/>
                </mxCell>
                <mxCell id="12" value="Dest 2" style="rounded=0;whiteSpace=wrap;html=1;fontSize=15;" vertex="1" parent="1">
                    <mxGeometry x="731" y="301" width="160" height="50" as="geometry"/>
                </mxCell>
                <mxCell id="13" value="..." style="rounded=0;whiteSpace=wrap;html=1;fontSize=15;" vertex="1" parent="1">
                    <mxGeometry x="731" y="351" width="160" height="50" as="geometry"/>
                </mxCell>
                <mxCell id="14" value="Dest&amp;nbsp; n" style="rounded=0;whiteSpace=wrap;html=1;fontSize=15;" vertex="1" parent="1">
                    <mxGeometry x="731" y="401" width="160" height="50" as="geometry"/>
                </mxCell>
                <mxCell id="21" value="&lt;b style=&quot;font-size: 15px;&quot;&gt;任务结构&lt;/b&gt;" style="text;html=1;align=center;verticalAlign=middle;resizable=0;points=[];autosize=1;strokeColor=none;fillColor=none;fontSize=15;" vertex="1" parent="1">
                    <mxGeometry x="191" y="86" width="78" height="30" as="geometry"/>
                </mxCell>
            </root>
        </mxGraphModel>
    </diagram>
</mxfile>